<svg width="15" height="15" viewBox="0 0 15 15" fill="none" xmlns="http://www.w3.org/2000/svg">
<g clip-path="url(#clip0_185_98)">
<path d="M13.2955 14.1371H1.7045C0.762801 14.1371 0 13.3743 0 12.4325V4.25068C0 3.30898 0.762801 2.54618 1.7045 2.54618H4.2401L5.26283 0.841675H9.7415L10.7642 2.54618H13.2955C14.2372 2.54618 15 3.30898 15 4.25068V12.4325C15 13.3743 14.2372 14.1371 13.2955 14.1371ZM1.7045 3.22796C1.14208 3.22796 0.681777 3.68826 0.681777 4.25068V12.4325C0.681777 12.9951 1.14208 13.4552 1.7045 13.4552H13.2955C13.858 13.4552 14.3182 12.9951 14.3182 12.4325V4.25068C14.3182 3.68826 13.858 3.22796 13.2955 3.22796H10.3765L9.35373 1.52345H5.65059L4.62787 3.22796H1.7045Z" fill="#95C9C5"/>
<path d="M7.50008 12.0917C5.43328 12.0917 3.75 10.4084 3.75 8.34157C3.75 6.27489 5.43328 4.59161 7.50008 4.59161C9.56676 4.59161 11.25 6.27489 11.25 8.34157C11.25 10.4084 9.56676 12.0917 7.50008 12.0917ZM7.50008 5.27339C5.80831 5.27339 4.4319 6.6498 4.4319 8.34157C4.4319 10.0333 5.80831 11.4098 7.50008 11.4098C9.19185 11.4098 10.5683 10.0333 10.5683 8.34157C10.5683 6.6498 9.19185 5.27339 7.50008 5.27339Z" fill="#95C9C5"/>
<path d="M11.9316 4.25067H13.2953V4.93257H11.9316V4.25067Z" fill="#95C9C5"/>
</g>
<defs>
<clipPath id="clip0_185_98">
<rect width="15" height="15" fill="white"/>
</clipPath>
</defs>
</svg>
