<svg width="35" height="32" viewBox="0 0 35 32" fill="none" xmlns="http://www.w3.org/2000/svg">
<path d="M5.81056 13.3646H13.3644C13.6858 13.3646 13.9455 13.1043 13.9455 12.7835C13.9455 12.4628 13.6858 12.2025 13.3644 12.2025H5.81056C5.48923 12.2025 5.22949 12.4628 5.22949 12.7835C5.22949 13.1043 5.48923 13.3646 5.81056 13.3646Z" fill="#58AAA4"/>
<path d="M20.9183 15.6888H5.81056C5.48923 15.6888 5.22949 15.9492 5.22949 16.2699C5.22949 16.5907 5.48923 16.851 5.81056 16.851H20.9183C21.2397 16.851 21.4994 16.5907 21.4994 16.2699C21.4994 15.9492 21.2397 15.6888 20.9183 15.6888Z" fill="#58AAA4"/>
<path d="M20.9183 19.1752H5.81056C5.48923 19.1752 5.22949 19.4356 5.22949 19.7563C5.22949 20.077 5.48923 20.3374 5.81056 20.3374H20.9183C21.2397 20.3374 21.4994 20.077 21.4994 19.7563C21.4994 19.4356 21.2397 19.1752 20.9183 19.1752Z" fill="#58AAA4"/>
<path d="M31.4195 0.0406749L11.5807 0C9.68059 0 8.13495 1.54564 8.13495 3.44573V6.42313L3.44573 6.433C1.54564 6.433 0 7.97865 0 9.87874V22.1631C0 24.0632 1.54564 25.6083 3.44573 25.6083H6.97282V31.4189C6.97282 31.6589 7.12041 31.8745 7.3447 31.9611C7.41269 31.9872 7.48358 32 7.55389 32C7.71426 32 7.87173 31.9332 7.98388 31.81L13.6226 25.6071L23.2834 25.5676C25.1835 25.5676 26.7291 24.0219 26.7291 22.1224V22.0568L29.7855 25.4188C29.8977 25.542 30.0552 25.6088 30.2155 25.6088C30.2859 25.6088 30.3567 25.5961 30.4247 25.5699C30.649 25.4833 30.7966 25.2677 30.7966 25.0278V19.2171H31.4184C33.3184 19.2171 34.8641 17.6714 34.8641 15.7719V3.48641C34.8641 1.5869 33.319 0.0412559 31.4195 0.0406749ZM25.567 22.1218C25.567 23.381 24.5426 24.4049 23.2811 24.4049L13.3622 24.4455C13.1995 24.4461 13.0438 24.5153 12.9346 24.6355L8.13495 29.9157V25.0266C8.13495 24.7059 7.87522 24.4455 7.55389 24.4455H3.44573C2.18656 24.4455 1.16214 23.4211 1.16214 22.1625V9.87816C1.16214 8.61898 2.18656 7.59456 3.4469 7.59456L8.71602 7.58352C8.7166 7.58352 8.7166 7.58352 8.71718 7.58352L23.2834 7.5533C24.5426 7.5533 25.567 8.57773 25.567 9.8369V20.5524V22.1218ZM33.702 15.7708C33.702 17.0299 32.6775 18.0538 31.4184 18.0538H30.2155C29.8942 18.0538 29.6345 18.3141 29.6345 18.6349V23.524L26.7291 20.3281V9.83748C26.7291 7.93739 25.1835 6.39175 23.2822 6.39175L9.29709 6.42022V3.44515C9.29709 2.18598 10.3215 1.16156 11.5795 1.16156L31.4178 1.20223C31.4184 1.20223 31.4184 1.20223 31.4189 1.20223C32.6781 1.20223 33.7025 2.22665 33.7025 3.48583L33.702 15.7708Z" fill="#58AAA4"/>
</svg>
