<svg width="14" height="14" viewBox="0 0 14 14" fill="none" xmlns="http://www.w3.org/2000/svg">
<path d="M6.53333 13.0667C10.1416 13.0667 13.0667 10.1416 13.0667 6.53333C13.0667 2.92507 10.1416 0 6.53333 0C2.92507 0 0 2.92507 0 6.53333C0 10.1416 2.92507 13.0667 6.53333 13.0667Z" fill="#32BA7C"/>
<path d="M6.69808 7.99665C6.98662 8.28518 6.98662 8.77982 6.69808 9.06836L6.10039 9.66605C5.81185 9.95458 5.31722 9.95458 5.02868 9.66605L2.41123 7.02798C2.12269 6.73945 2.12269 6.24481 2.41123 5.95627L3.00891 5.35858C3.29745 5.07005 3.79209 5.07005 4.08063 5.35858L6.69808 7.99665Z" fill="white"/>
<path d="M8.98592 3.44187C9.27446 3.15333 9.7691 3.15333 10.0576 3.44187L10.6553 4.03955C10.9439 4.32809 10.9439 4.82273 10.6553 5.11127L6.12115 9.62483C5.83262 9.91336 5.33798 9.91336 5.04944 9.62483L4.45176 9.02714C4.16322 8.7386 4.16322 8.24396 4.45176 7.95543L8.98592 3.44187Z" fill="white"/>
</svg>
