<svg width="18" height="18" viewBox="0 0 18 18" fill="none" xmlns="http://www.w3.org/2000/svg">
<path d="M16.9721 0.280693C16.5979 -0.0935645 15.9911 -0.0935645 15.6169 0.280693L8.6264 7.27115L1.63598 0.280693C1.26173 -0.0935645 0.654942 -0.0935645 0.280693 0.280693C-0.0935645 0.654942 -0.0935645 1.26173 0.280693 1.63598L7.27112 8.62643L0.280713 15.6168C-0.0935453 15.9911 -0.0935453 16.5978 0.280713 16.9722C0.654961 17.3464 1.26175 17.3464 1.636 16.9722L8.6264 9.9817L15.6169 16.9722C15.9911 17.3464 16.5979 17.3464 16.9721 16.9722C17.3464 16.5978 17.3464 15.9911 16.9721 15.6169L9.98167 8.62643L16.9721 1.63598C17.3464 1.26173 17.3464 0.654942 16.9721 0.280693Z" fill="#AB4141"/>
</svg>
