<svg width="14" height="14" viewBox="0 0 14 14" fill="none" xmlns="http://www.w3.org/2000/svg">
<path d="M6.53493 13.0699C10.1441 13.0699 13.0699 10.1441 13.0699 6.53493C13.0699 2.92579 10.1441 0 6.53493 0C2.92579 0 0 2.92579 0 6.53493C0 10.1441 2.92579 13.0699 6.53493 13.0699Z" fill="#AB4141"/>
<path d="M9.51652 9.51649C9.27147 9.76154 8.86301 9.76154 8.61796 9.51649L6.53497 7.43349L4.45197 9.51649C4.20692 9.76154 3.79847 9.76154 3.55342 9.51649C3.30837 9.27144 3.30837 8.86298 3.55342 8.61793L5.63641 6.53494L3.55342 4.45194C3.30837 4.20689 3.30837 3.79844 3.55342 3.55339C3.79847 3.30834 4.20692 3.30834 4.45197 3.55339L6.53497 5.63638L8.61796 3.55339C8.86301 3.30834 9.27147 3.30834 9.51652 3.55339C9.76157 3.79844 9.76157 4.20689 9.51652 4.45194L7.43352 6.53494L9.51652 8.61793C9.76157 8.86298 9.76157 9.27141 9.51652 9.51649Z" fill="white"/>
</svg>
