<svg width="10" height="10" viewBox="0 0 10 10" fill="none" xmlns="http://www.w3.org/2000/svg">
<g clip-path="url(#clip0_163_258)">
<path d="M8.72217 0H1.27783C0.573223 0 0 0.573242 0 1.27785V8.72217C0 9.42676 0.573223 10 1.27783 10H8.72217C9.42678 10 10 9.42676 10 8.72215V1.27785C10 0.573242 9.42678 0 8.72217 0ZM9.41098 8.72217C9.41098 9.10199 9.10197 9.41098 8.72217 9.41098H1.27783C0.898008 9.41098 0.589004 9.10197 0.589004 8.72217V7.64781L2.52758 5.99838C2.59832 5.93818 2.70152 5.93762 2.77293 5.99691L3.98727 7.00527C4.10436 7.10248 4.27623 7.09451 4.38383 6.9868L7.26916 4.09707C7.32131 4.04482 7.38211 4.03975 7.41385 4.04137C7.44549 4.04299 7.50555 4.05428 7.55209 4.1116L9.411 6.40047L9.41098 8.72217ZM9.41098 5.46611L8.0093 3.74021C7.87029 3.56904 7.66426 3.46439 7.44402 3.45309C7.22395 3.44195 7.00814 3.5248 6.85234 3.68086L4.15688 6.38049L3.14926 5.54379C2.85709 5.30117 2.43514 5.30369 2.14588 5.5498L0.589004 6.87445V1.27785C0.589004 0.898027 0.898008 0.589023 1.27783 0.589023H8.72217C9.10199 0.589023 9.41098 0.898027 9.41098 1.27785V5.46611Z" fill="#58AAA4"/>
<path d="M3.14771 1.23047C2.36461 1.23047 1.72754 1.86758 1.72754 2.65064C1.72754 3.43373 2.36463 4.07082 3.14771 4.07082C3.9308 4.07082 4.56789 3.43373 4.56789 2.65064C4.56789 1.86756 3.93082 1.23047 3.14771 1.23047ZM3.14771 3.48182C2.68939 3.48182 2.31654 3.10895 2.31654 2.65064C2.31654 2.19232 2.68939 1.81947 3.14771 1.81947C3.60604 1.81947 3.97889 2.19234 3.97889 2.65064C3.97889 3.10895 3.60604 3.48182 3.14771 3.48182Z" fill="#58AAA4"/>
</g>
<defs>
<clipPath id="clip0_163_258">
<rect width="10" height="10" fill="white"/>
</clipPath>
</defs>
</svg>
