<svg width="38" height="38" viewBox="0 0 38 38" fill="none" xmlns="http://www.w3.org/2000/svg">
<path d="M37.9034 11.1721C37.8144 9.15304 37.4878 7.76494 37.02 6.56212C36.5374 5.28537 35.7949 4.14229 34.8221 3.19204C33.8717 2.227 32.7209 1.47713 31.4587 1.00215C30.2487 0.534423 28.8675 0.207912 26.8481 0.11889C24.8135 0.022328 24.1676 0 19.0074 0C13.8472 0 13.2013 0.022328 11.1743 0.11135C9.15479 0.200372 7.76642 0.527174 6.56367 0.994613C5.28637 1.47713 4.14308 2.21947 3.19265 3.19204C2.22743 4.14229 1.4777 5.2929 1.00234 6.55487C0.534525 7.76494 0.207951 9.14551 0.118912 11.1646C0.0223323 13.1988 0 13.8445 0 19.0038C0 24.163 0.0223323 24.8088 0.111371 26.8354C0.200411 28.8545 0.527274 30.2426 0.995092 31.4454C1.4777 32.7222 2.22743 33.8653 3.19265 34.8155C4.14308 35.7805 5.29391 36.5304 6.55612 37.0054C7.76642 37.4731 9.14725 37.7996 11.167 37.8886C13.1937 37.978 13.8399 38 19.0001 38C24.1604 38 24.8063 37.978 26.8333 37.8886C28.8528 37.7996 30.2411 37.4731 31.4439 37.0054C33.9982 36.018 36.0176 33.9989 37.0052 31.4454C37.4727 30.2354 37.7996 28.8545 37.8886 26.8354C37.9777 24.8088 38 24.163 38 19.0038C38 13.8445 37.9925 13.1988 37.9034 11.1721ZM34.4808 26.6869C34.399 28.5428 34.0872 29.5449 33.8273 30.213C33.1887 31.8685 31.8746 33.1824 30.2188 33.8209C29.5506 34.0807 28.541 34.3924 26.692 34.4739C24.6873 34.5632 24.0861 34.5853 19.0149 34.5853C13.9438 34.5853 13.335 34.5632 11.3376 34.4739C9.48137 34.3924 8.47902 34.0807 7.81079 33.8209C6.98682 33.5164 6.2368 33.0339 5.62803 32.4029C4.99692 31.7867 4.51431 31.0444 4.20978 30.2206C3.94992 29.5525 3.63813 28.5428 3.55664 26.6945C3.46731 24.6902 3.44526 24.0888 3.44526 19.0186C3.44526 13.9484 3.46731 13.3397 3.55664 11.3429C3.63813 9.4871 3.94992 8.48494 4.20978 7.81684C4.51431 6.99274 4.99692 6.24315 5.63557 5.6342C6.25159 5.00322 6.99407 4.5207 7.81834 4.21652C8.48656 3.9567 9.49645 3.64498 11.3451 3.56321C13.3498 3.47418 13.9513 3.45186 19.0222 3.45186C24.1009 3.45186 24.7021 3.47418 26.6996 3.56321C28.5558 3.64498 29.5581 3.9567 30.2263 4.21652C31.0503 4.5207 31.8003 5.00322 32.4091 5.6342C33.0402 6.2504 33.5228 6.99274 33.8273 7.81684C34.0872 8.48494 34.399 9.49434 34.4808 11.3429C34.5698 13.3472 34.5922 13.9484 34.5922 19.0186C34.5922 24.0888 34.5698 24.6826 34.4808 26.6869Z" fill="#58AAA5"/>
<path d="M19 9C13.4793 9 9 13.255 9 18.5C9 23.745 13.4793 28 19 28C24.521 28 29 23.745 29 18.5C29 13.255 24.521 9 19 9ZM19 24.6624C15.4184 24.6624 12.5132 21.9028 12.5132 18.5C12.5132 15.0972 15.4184 12.3376 19 12.3376C22.5819 12.3376 25.4868 15.0972 25.4868 18.5C25.4868 21.9028 22.5819 24.6624 19 24.6624Z" fill="#58AAA5"/>
</svg>
