<svg width="36" height="37" viewBox="0 0 36 37" fill="none" xmlns="http://www.w3.org/2000/svg">
<path d="M18.1185 0.877197H18.1096C8.27193 0.877197 0.271973 8.87938 0.271973 18.7193C0.271973 22.6223 1.52984 26.2397 3.66866 29.177L1.44509 35.8053L8.30315 33.613C11.1244 35.482 14.4899 36.5614 18.1185 36.5614C27.9562 36.5614 35.9562 28.557 35.9562 18.7193C35.9562 8.88161 27.9562 0.877197 18.1185 0.877197ZM28.5004 26.0725C28.07 27.288 26.3616 28.296 24.9989 28.5904C24.0666 28.7889 22.8489 28.9473 18.7497 27.2478C13.5064 25.0756 10.1297 19.7475 9.86656 19.4018C9.61454 19.0561 7.74781 16.5805 7.74781 14.0201C7.74781 11.4598 9.04806 10.2131 9.57217 9.67782C10.0026 9.23845 10.7141 9.03773 11.3965 9.03773C11.6173 9.03773 11.8158 9.04888 11.9942 9.0578C12.5183 9.0801 12.7815 9.11133 13.1272 9.93876C13.5576 10.9758 14.6059 13.5362 14.7308 13.7993C14.8579 14.0625 14.985 14.4194 14.8066 14.765C14.6393 15.1219 14.4921 15.2802 14.229 15.5836C13.9658 15.8869 13.716 16.1188 13.4528 16.4444C13.212 16.7277 12.9399 17.031 13.2432 17.5551C13.5465 18.0681 14.5947 19.7787 16.1381 21.1525C18.1297 22.9256 19.7444 23.4921 20.322 23.7329C20.7525 23.9114 21.2654 23.869 21.5799 23.5344C21.9791 23.104 22.472 22.3903 22.9738 21.6878C23.3307 21.1837 23.7812 21.1213 24.254 21.2997C24.7357 21.467 27.2849 22.7271 27.809 22.988C28.3331 23.2512 28.6788 23.3761 28.806 23.5969C28.9309 23.8177 28.9309 24.8548 28.5004 26.0725Z" fill="#58AAA5"/>
</svg>
