<svg width="19" height="19" viewBox="0 0 19 19" fill="none" xmlns="http://www.w3.org/2000/svg">
<path d="M9.73381 0.0800781H9.72926C4.71003 0.0800781 0.628418 4.16282 0.628418 9.18319C0.628418 11.1745 1.27019 13.0202 2.36142 14.5188L1.22695 17.9006L4.72596 16.782C6.16539 17.7356 7.88246 18.2863 9.73381 18.2863C14.753 18.2863 18.8346 14.2024 18.8346 9.18319C18.8346 4.16396 14.753 0.0800781 9.73381 0.0800781ZM15.0307 12.9348C14.8111 13.555 13.9394 14.0693 13.2442 14.2195C12.7686 14.3208 12.1473 14.4016 10.0558 13.5345C7.38065 12.4262 5.65789 9.70776 5.52362 9.53139C5.39504 9.35501 4.44262 8.09196 4.44262 6.78566C4.44262 5.47936 5.10601 4.84328 5.37342 4.57019C5.59303 4.34602 5.95602 4.24361 6.30421 4.24361C6.41686 4.24361 6.51813 4.2493 6.60916 4.25386C6.87657 4.26523 7.01084 4.28117 7.18721 4.70332C7.40682 5.23244 7.94163 6.53874 8.00535 6.67301C8.07021 6.80728 8.13507 6.98934 8.04404 7.16571C7.9587 7.34778 7.8836 7.42857 7.74933 7.58332C7.61506 7.73807 7.48761 7.85641 7.35334 8.02255C7.23045 8.16706 7.09163 8.32181 7.24638 8.58921C7.40113 8.85093 7.93594 9.72369 8.72336 10.4246C9.7395 11.3293 10.5633 11.6183 10.858 11.7412C11.0777 11.8322 11.3394 11.8106 11.4998 11.6399C11.7035 11.4203 11.955 11.0562 12.211 10.6977C12.3931 10.4406 12.6229 10.4087 12.8641 10.4997C13.1099 10.5851 14.4105 11.228 14.6779 11.3611C14.9453 11.4954 15.1217 11.5591 15.1866 11.6718C15.2503 11.7844 15.2503 12.3135 15.0307 12.9348Z" fill="white"/>
</svg>
