<svg width="42" height="41" viewBox="0 0 42 41" fill="none" xmlns="http://www.w3.org/2000/svg">
<path d="M38.6927 3.61582L27.8405 0.0303548C27.7181 -0.0101183 27.5789 -0.0101183 27.4565 0.0303548L20.9195 2.19012C20.5985 2.29612 20.4244 2.64226 20.5304 2.96319C20.6364 3.28412 20.9825 3.45809 21.3035 3.35233L27.0365 1.45826V29.3845C26.717 29.2851 26.409 29.1596 26.1158 29.0091C25.8152 28.8547 25.4463 28.9734 25.2918 29.274C25.1374 29.5748 25.2561 29.9436 25.5567 30.098C26.023 30.3374 26.5196 30.5234 27.0365 30.6548V35.1013L14.7423 39.1631V5.5223L18.9557 4.15323C19.2771 4.04878 19.4531 3.70354 19.3486 3.38212C19.2441 3.06062 18.8987 2.88485 18.5775 2.98922L14.1319 4.43377L5.90736 1.71652C3.0385 0.768418 0 2.9711 0 5.98603V32.7358C0 34.6798 1.24014 36.3957 3.08599 37.0054L13.9383 40.5908C14.0591 40.6322 14.2013 40.6322 14.3222 40.5908L27.6484 36.188L35.8714 38.9048C38.7419 39.8532 41.7787 37.6488 41.7787 34.6352V7.88541C41.7787 5.94139 40.5386 4.22553 38.6927 3.61582ZM1.22399 32.7358V5.98603C1.22399 3.79142 3.43516 2.18898 5.52328 2.87857L13.5183 5.52001V11.2886C13.0182 11.3353 12.526 11.4375 12.0477 11.5903C11.7257 11.6932 11.5481 12.0376 11.651 12.3596C11.7341 12.6197 11.9747 12.7855 12.2338 12.7855C12.4353 12.7855 13.2885 12.5451 13.5184 12.5188V39.1631L3.46992 35.8433C2.12663 35.3995 1.22399 34.1507 1.22399 32.7358ZM40.5547 34.6352C40.5547 36.8307 38.3431 38.4321 36.2554 37.7427L28.2604 35.1012V1.45818L38.3088 4.77795C39.6521 5.22177 40.5547 6.47056 40.5547 7.88541V34.6352Z" fill="#58AAA4"/>
<path d="M7.54024 31.7215C7.36146 31.4346 6.98415 31.3469 6.69716 31.5256C6.41026 31.7043 6.32262 32.0818 6.50133 32.3687C6.82691 32.8913 7.18741 33.3982 7.57272 33.8753C7.78153 34.1337 8.17435 34.176 8.43343 33.9669C8.69634 33.7544 8.73738 33.3692 8.52498 33.1062C8.17084 32.6678 7.83947 32.2019 7.54024 31.7215Z" fill="#58AAA4"/>
<path d="M5.52686 26.1151C5.48279 25.7799 5.17516 25.5446 4.84036 25.588C4.50532 25.6321 4.26933 25.9396 4.3134 26.2746C4.39328 26.882 4.51193 27.4926 4.66607 28.0894C4.74946 28.4119 5.08965 28.6117 5.4118 28.5288C5.73901 28.4443 5.93575 28.1104 5.85121 27.7831C5.70939 27.2345 5.6003 26.6732 5.52686 26.1151Z" fill="#58AAA4"/>
<path d="M18.5229 12.7488C18.2485 12.5516 17.866 12.6142 17.6689 12.889C17.4717 13.1635 17.5345 13.5459 17.8091 13.743C18.2548 14.0632 18.6678 14.4294 19.0373 14.8353C19.2606 15.0806 19.6562 15.0994 19.9018 14.8761C20.1518 14.6486 20.1701 14.2615 19.9426 14.0115C19.5156 13.5422 19.0383 13.1186 18.5229 12.7488Z" fill="#58AAA4"/>
<path d="M5.63734 19.4186C5.31494 19.3192 4.9719 19.5003 4.87243 19.8235C4.69153 20.4111 4.54416 21.0146 4.43432 21.617C4.37378 21.9496 4.59418 22.2682 4.92669 22.3289C5.2544 22.388 5.57875 22.1644 5.63856 21.8365C5.73966 21.2813 5.87553 20.7252 6.04223 20.1835C6.1417 19.8605 5.96039 19.5181 5.63734 19.4186Z" fill="#58AAA4"/>
<path d="M8.06643 14.1709C7.632 14.6233 7.23706 15.1092 6.88977 15.6194C6.69646 15.8941 6.76085 16.2739 7.03461 16.4695C7.31352 16.6688 7.70691 16.5919 7.89907 16.3118C8.20637 15.8594 8.55962 15.4243 8.94917 15.0187C9.18328 14.775 9.17544 14.3876 8.93171 14.1535C8.68813 13.9194 8.3007 13.9272 8.06643 14.1709Z" fill="#58AAA4"/>
<path d="M21.9354 24.6235C22.0583 25.2948 22.216 25.8882 22.4175 26.4377C22.532 26.7498 22.8904 26.9162 23.2028 26.8016C23.5201 26.6852 23.6831 26.3337 23.5667 26.0163C23.3894 25.5328 23.2496 25.005 23.1393 24.403C23.0784 24.0705 22.7596 23.8501 22.427 23.9113C22.0946 23.9722 21.8745 24.291 21.9354 24.6235Z" fill="#58AAA4"/>
<path d="M22.2161 18.1504C22.1194 17.8267 21.7788 17.6421 21.4547 17.7391C21.1308 17.8358 20.9466 18.1766 21.0433 18.5005C21.2046 19.0411 21.3225 19.5931 21.4084 20.1505C21.4589 20.4789 21.7774 20.7137 22.1064 20.6622C22.4405 20.6108 22.6695 20.2983 22.6181 19.9642C22.5882 19.7703 22.3384 18.5601 22.2161 18.1504Z" fill="#58AAA4"/>
<path d="M36.7895 22.8715C36.4599 22.7983 36.1327 23.006 36.0592 23.336C35.9371 23.8847 35.7675 24.4174 35.5549 24.9193C35.4232 25.2304 35.5686 25.5896 35.8799 25.7214C36.1868 25.8515 36.5524 25.7026 36.682 25.3965C36.9234 24.8266 37.1158 24.2227 37.254 23.6018C37.3274 23.2719 37.1195 22.945 36.7895 22.8715Z" fill="#58AAA4"/>
<path d="M33.0374 28.1781C32.5966 28.5099 32.1227 28.7931 31.6291 29.0198C31.322 29.1609 31.1874 29.5242 31.3284 29.8314C31.4675 30.1339 31.8374 30.271 32.14 30.1321C32.713 29.8688 33.2626 29.5405 33.7734 29.156C34.0435 28.9528 34.0977 28.5691 33.8943 28.299C33.6913 28.029 33.3075 27.9748 33.0374 28.1781Z" fill="#58AAA4"/>
<path d="M36.8417 17.1041C36.7364 16.783 36.3909 16.608 36.0695 16.7132C35.7483 16.8184 35.5733 17.1641 35.6786 17.4854C35.8582 18.0334 36.0005 18.585 36.1016 19.1249C36.163 19.4523 36.4883 19.6748 36.8159 19.6138C37.1481 19.5515 37.367 19.2317 37.3047 18.8995C37.1938 18.3071 37.0379 17.7029 36.8417 17.1041Z" fill="#58AAA4"/>
<path d="M37.0513 13.3866L35.6301 12.6686L36.3703 11.2036C36.5227 10.9019 36.4017 10.5338 36.1 10.3814C35.7985 10.2291 35.4302 10.3499 35.2778 10.6518L34.5376 12.1167L33.0727 11.3766C32.7711 11.2243 32.4029 11.3453 32.2505 11.6469C32.098 11.9486 32.219 12.3167 32.5208 12.4691L33.9857 13.2092L33.2676 14.6304C33.1152 14.9321 33.2362 15.3002 33.5379 15.4526C33.8345 15.6025 34.2101 15.4792 34.3601 15.1823L35.0782 13.7611L36.4995 14.4792C36.7962 14.6291 37.1717 14.5056 37.3217 14.2088C37.4741 13.9072 37.3531 13.5391 37.0513 13.3866Z" fill="#58AAA4"/>
</svg>
