<svg width="34" height="34" viewBox="0 0 34 34" fill="none" xmlns="http://www.w3.org/2000/svg">
<g clip-path="url(#clip0_13_5)">
<path d="M17 34C26.3888 34 34 26.3888 34 17C34 7.61116 26.3888 0 17 0C7.61116 0 0 7.61116 0 17C0 26.3888 7.61116 34 17 34Z" fill="#58AAA4"/>
<path d="M8.81612 15.1326H26.5525C27.326 15.1326 27.9531 15.7597 27.9525 16.5326L27.9532 17.4667C27.9531 18.2403 27.326 18.8674 26.5531 18.8668H8.81673C8.04307 18.8666 7.41603 18.2396 7.41663 17.4667V16.5333C7.4153 15.7597 8.04247 15.1325 8.81612 15.1326Z" fill="white"/>
<path d="M19.5515 8.13191V25.8683C19.5515 26.6419 18.9243 27.269 18.1514 27.2684H17.2181C16.4444 27.2683 15.8174 26.6413 15.818 25.8683L15.8168 8.13191C15.8167 7.35825 16.4437 6.73121 17.2168 6.73193H18.1501C18.9243 6.73121 19.5514 7.35825 19.5515 8.13191Z" fill="white"/>
</g>
<defs>
<clipPath id="clip0_13_5">
<rect width="34" height="34" fill="white"/>
</clipPath>
</defs>
</svg>
