<svg width="32" height="32" viewBox="0 0 32 32" fill="none" xmlns="http://www.w3.org/2000/svg">
<path d="M16 2.28571C23.5623 2.28571 29.7143 8.43771 29.7143 16C29.7143 23.5623 23.5623 29.7143 16 29.7143C8.43771 29.7143 2.28571 23.5623 2.28571 16C2.28571 8.43771 8.43771 2.28571 16 2.28571ZM16 0C7.16343 0 0 7.16343 0 16C0 24.8366 7.16343 32 16 32C24.8366 32 32 24.8366 32 16C32 7.16343 24.8366 0 16 0ZM24 14.8571H17.1429V8H14.8571V14.8571H8V17.1429H14.8571V24H17.1429V17.1429H24V14.8571Z" fill="#58AAA4"/>
</svg>
