<svg width="32" height="33" viewBox="0 0 32 33" fill="none" xmlns="http://www.w3.org/2000/svg">
<path d="M31.7274 30.7505L24.4565 23.4796C26.688 20.9349 27.9193 17.7149 27.9193 14.2988C27.9193 10.5698 26.467 7.06447 23.8305 4.42795C21.194 1.79143 17.6886 0.339111 13.9597 0.339111C10.2307 0.339111 6.72536 1.79143 4.08884 4.42795C1.45231 7.06447 0 10.5698 0 14.2988C0 18.0277 1.45231 21.5331 4.08884 24.1696C6.72536 26.8061 10.2307 28.2585 13.9597 28.2585C17.3758 28.2585 20.5957 27.0272 23.1405 24.7956L30.4114 32.0665C30.5931 32.2482 30.8312 32.3391 31.0694 32.3391C31.3075 32.3391 31.5456 32.2482 31.7274 32.0665C32.0909 31.7029 32.0909 31.114 31.7274 30.7505ZM5.40483 22.8536C3.12002 20.5684 1.86129 17.5301 1.86129 14.2988C1.86129 11.0674 3.12002 8.0292 5.40483 5.74394C7.69009 3.45913 10.7283 2.2004 13.9597 2.2004C17.191 2.2004 20.2293 3.45913 22.5145 5.74394C24.7993 8.0292 26.0581 11.0674 26.0581 14.2988C26.0581 17.5301 24.7993 20.5684 22.5145 22.8536C20.2293 25.1384 17.191 26.3972 13.9597 26.3972C10.7283 26.3972 7.69009 25.1384 5.40483 22.8536Z" fill="#58AAA5"/>
</svg>
