<svg width="38" height="38" viewBox="0 0 38 38" fill="none" xmlns="http://www.w3.org/2000/svg">
<path d="M37.6762 36.1135L29.042 27.4793C31.6921 24.4574 33.1542 20.6338 33.1542 16.5771C33.1542 12.149 31.4296 7.98637 28.2987 4.8555C25.1679 1.72462 21.0052 0 16.5771 0C12.149 0 7.98637 1.72462 4.8555 4.8555C1.72462 7.98637 0 12.149 0 16.5771C0 21.0052 1.72462 25.1679 4.8555 28.2987C7.98637 31.4296 12.149 33.1542 16.5771 33.1542C20.6338 33.1542 24.4574 31.6921 27.4793 29.042L36.1135 37.6762C36.3293 37.8921 36.6121 38 36.8949 38C37.1776 38 37.4604 37.8921 37.6762 37.6762C38.1079 37.2445 38.1079 36.5452 37.6762 36.1135ZM6.41823 26.736C3.70503 24.0222 2.21028 20.4143 2.21028 16.5771C2.21028 12.7399 3.70503 9.13198 6.41823 6.41823C9.13198 3.70503 12.7399 2.21028 16.5771 2.21028C20.4143 2.21028 24.0222 3.70503 26.736 6.41823C29.4492 9.13198 30.9439 12.7399 30.9439 16.5771C30.9439 20.4143 29.4492 24.0222 26.736 26.736C24.0222 29.4492 20.4143 30.9439 16.5771 30.9439C12.7399 30.9439 9.13198 29.4492 6.41823 26.736Z" fill="white"/>
</svg>
