<svg width="22" height="22" viewBox="0 0 22 22" fill="none" xmlns="http://www.w3.org/2000/svg">
<path d="M4.92407 21.5551C4.68303 21.5551 4.44368 21.4799 4.2394 21.3322C3.85889 21.0565 3.68113 20.5824 3.7847 20.125L5.20002 13.8906L0.400148 9.68119C0.0473249 9.37318 -0.0874594 8.88541 0.057396 8.43909C0.202251 7.99362 0.596366 7.67822 1.06299 7.63509L7.4138 7.05852L9.92468 1.18256C10.1098 0.750846 10.5315 0.472046 10.9999 0.472046C11.4684 0.472046 11.8901 0.750846 12.0752 1.18155L14.5861 7.05852L20.9359 7.63509C21.4035 7.67722 21.7976 7.99362 21.9425 8.43909C22.0873 8.88457 21.9534 9.37318 21.6006 9.68119L16.8007 13.8897L18.216 20.124C18.3198 20.5824 18.1418 21.0565 17.7615 21.3314C17.382 21.6063 16.8759 21.6275 16.4762 21.3873L10.9999 18.1147L5.52363 21.3891C5.33849 21.4991 5.1322 21.5551 4.92407 21.5551Z" fill="#58AAA5"/>
</svg>
