<svg width="10" height="13" viewBox="0 0 10 13" fill="none" xmlns="http://www.w3.org/2000/svg">
<path d="M5 0C2.24333 0 0 2.20242 0 4.91021C0 8.75767 4.53 12.7303 4.72278 12.8971C4.80222 12.9659 4.90111 13 5 13C5.09889 13 5.19778 12.9659 5.27722 12.8976C5.47 12.7303 10 8.75767 10 4.91021C10 2.20242 7.75667 0 5 0ZM5 7.58333C3.46833 7.58333 2.22222 6.36838 2.22222 4.875C2.22222 3.38163 3.46833 2.16667 5 2.16667C6.53167 2.16667 7.77778 3.38163 7.77778 4.875C7.77778 6.36838 6.53167 7.58333 5 7.58333Z" fill="#58AAA4"/>
</svg>
