<svg width="36" height="36" viewBox="0 0 36 36" fill="none" xmlns="http://www.w3.org/2000/svg">
<path d="M30.728 5.21662C27.3281 1.85265 22.808 0 18 0C13.192 0 8.67185 1.85265 5.27203 5.21662C1.87235 8.5806 0 13.0532 0 17.8106C0 22.568 1.87235 27.0406 5.27203 30.4046C8.67185 33.7685 13.192 35.6212 18 35.6212C22.808 35.6212 27.3281 33.7685 30.728 30.4046C34.1276 27.0406 36 22.568 36 17.8106C36 13.0532 34.1276 8.5806 30.728 5.21662ZM18 33.534C13.7219 33.534 9.83377 31.8519 6.97416 29.1218C8.52272 24.44 12.9717 21.2196 18 21.2196C23.0283 21.2196 27.4773 24.44 29.0259 29.1218C26.1662 31.8519 22.2781 33.534 18 33.534ZM12.7266 13.9145C12.7266 11.0373 15.0922 8.69658 18 8.69658C20.9078 8.69658 23.2734 11.0373 23.2734 13.9145C23.2734 16.7917 20.9078 19.1325 18 19.1325C15.0922 19.1325 12.7266 16.7917 12.7266 13.9145ZM30.6098 27.3667C29.058 23.7743 26.0111 21.0447 22.3286 19.8285C24.1779 18.4996 25.3828 16.3439 25.3828 13.9145C25.3828 9.88648 22.0709 6.6094 18 6.6094C13.9291 6.6094 10.6172 9.88648 10.6172 13.9145C10.6172 16.3439 11.8221 18.4996 13.6714 19.8285C9.98888 21.0447 6.94195 23.7743 5.39016 27.3667C3.3338 24.7163 2.10938 21.4025 2.10938 17.8106C2.10938 9.14066 9.23787 2.08718 18 2.08718C26.7621 2.08718 33.8906 9.14066 33.8906 17.8106C33.8906 21.4025 32.6662 24.7163 30.6098 27.3667Z" fill="#AB4141"/>
</svg>
