<svg width="24" height="24" viewBox="0 0 24 24" fill="none" xmlns="http://www.w3.org/2000/svg">
<path d="M19.9518 3.38718C17.7443 1.20294 14.8093 0 11.6875 0C8.56566 0 5.63068 1.20294 3.42316 3.38718C1.21573 5.57143 0 8.47552 0 11.5645C0 14.6535 1.21573 17.5576 3.42316 19.7418C5.63068 21.9261 8.56566 23.129 11.6875 23.129C14.8093 23.129 17.7443 21.9261 19.9518 19.7418C22.1593 17.5576 23.375 14.6535 23.375 11.5645C23.375 8.47552 22.1593 5.57143 19.9518 3.38718ZM11.6875 21.7738C8.90971 21.7738 6.38512 20.6816 4.52836 18.9089C5.53385 15.869 8.42262 13.778 11.6875 13.778C14.9524 13.778 17.8412 15.869 18.8467 18.909C16.9899 20.6816 14.4653 21.7738 11.6875 21.7738ZM8.26343 9.03478C8.26343 7.16661 9.79947 5.64674 11.6875 5.64674C13.5755 5.64674 15.1116 7.16661 15.1116 9.03478C15.1116 10.9029 13.5755 12.4228 11.6875 12.4228C9.79947 12.4228 8.26343 10.9029 8.26343 9.03478ZM19.8751 17.7693C18.8676 15.4368 16.8892 13.6644 14.4981 12.8747C15.6988 12.0119 16.4812 10.6122 16.4812 9.03478C16.4812 6.41934 14.3307 4.29152 11.6875 4.29152C9.04425 4.29152 6.8938 6.41934 6.8938 9.03478C6.8938 10.6122 7.67618 12.0119 8.87693 12.8747C6.48583 13.6644 4.50745 15.4368 3.49986 17.7693C2.16465 16.0484 1.36963 13.8968 1.36963 11.5645C1.36963 5.93508 5.9982 1.35522 11.6875 1.35522C17.3768 1.35522 22.0054 5.93508 22.0054 11.5645C22.0054 13.8968 21.2103 16.0484 19.8751 17.7693Z" fill="#58AAA4"/>
</svg>
