<svg width="16" height="16" viewBox="0 0 16 16" fill="none" xmlns="http://www.w3.org/2000/svg">
<path d="M13.6569 2.7937C12.1458 1.37158 10.1369 0.588379 8 0.588379C5.86312 0.588379 3.85416 1.37158 2.34313 2.7937C0.832156 4.21582 0 6.10661 0 8.11779C0 10.129 0.832156 12.0198 2.34313 13.4419C3.85416 14.864 5.86312 15.6472 8 15.6472C10.1369 15.6472 12.1458 14.864 13.6569 13.4419C15.1678 12.0198 16 10.129 16 8.11779C16 6.10661 15.1678 4.21582 13.6569 2.7937ZM8 14.7648C6.09863 14.7648 4.37056 14.0538 3.09963 12.8996C3.78788 10.9203 5.76522 9.55897 8 9.55897C10.2348 9.55897 12.2121 10.9204 12.9004 12.8996C11.6294 14.0538 9.90137 14.7648 8 14.7648ZM5.65625 6.47073C5.65625 5.25441 6.70766 4.26485 8 4.26485C9.29234 4.26485 10.3438 5.25441 10.3438 6.47073C10.3438 7.68706 9.29234 8.67661 8 8.67661C6.70766 8.67661 5.65625 7.68706 5.65625 6.47073ZM13.6044 12.1576C12.9147 10.6389 11.5605 9.485 9.92384 8.97085C10.7457 8.40908 11.2812 7.49773 11.2812 6.47073C11.2812 4.76788 9.80928 3.3825 8 3.3825C6.19072 3.3825 4.71875 4.76788 4.71875 6.47073C4.71875 7.49773 5.25428 8.40908 6.07619 8.97085C4.4395 9.485 3.08531 10.6389 2.39563 12.1576C1.48169 11.0372 0.9375 9.63626 0.9375 8.11779C0.9375 4.45258 4.10572 1.47073 8 1.47073C11.8943 1.47073 15.0625 4.45258 15.0625 8.11779C15.0625 9.63626 14.5183 11.0372 13.6044 12.1576Z" fill="white"/>
</svg>
